<svg version="1.2" xmlns="http://www.w3.org/2000/svg" viewBox="0 0 48 42" width="15" height="15"><style>.a{fill:#fff}.b{fill:#555}</style><path class="a" d="m27.7 1.5c-2-2.1-5.4-2.1-7.5 0l-18.7 18.6c-2 2-2 5.3 0 7.4l13.4 13.2c0.9 0.8 2.1 1.3 3.5 1.3h11.2c1.5 0 2.8-0.6 3.7-1.5l13.2-13c2-2.1 2-5.4 0-7.4z"/><path class="b" d="m27.2 35.4l-1.9 1.9q-0.2 0.2-0.5 0.2h-1.6q-0.3 0-0.5-0.2l-1.9-1.9c-0.3-0.3-0.3-0.8 0-1l2.6-2.7c0.3-0.3 0.8-0.3 1.1 0l2.7 2.7c0.3 0.2 0.3 0.7 0 1zm0-11.1l-7.5 7.4q-0.2 0.2-0.5 0.2h-1.6q-0.3 0-0.5-0.2l-1.9-1.8c-0.3-0.3-0.3-0.8 0-1.1l8.2-8.2c0.3-0.3 0.8-0.3 1.1 0l2.7 2.6c0.3 0.3 0.3 0.8 0 1.1zm0-11.1l-13.1 12.9q-0.2 0.3-0.5 0.3h-1.6q-0.3 0-0.5-0.2l-1.9-1.9c-0.3-0.3-0.3-0.8 0-1.1l13.8-13.7c0.3-0.3 0.8-0.3 1.1 0l2.7 2.6c0.3 0.3 0.3 0.8 0 1.1z"/></svg>